<svg xmlns="http://www.w3.org/2000/svg" xmlns:xlink="http://www.w3.org/1999/xlink" viewBox="0 0 435.21 239.09"><defs><style>.cls-1{fill:url(#Degradado_sin_nombre_21);}.cls-2{fill:url(#Degradado_sin_nombre_21-2);}.cls-3{fill:url(#Degradado_sin_nombre_21-3);}.cls-4{fill:url(#Degradado_sin_nombre_21-4);}</style><linearGradient id="Degradado_sin_nombre_21" x1="58.21" y1="-92.01" x2="482.72" y2="472.58" gradientUnits="userSpaceOnUse"><stop offset="0.32" stop-color="#f4a889"/><stop offset="0.5" stop-color="#fbdc89"/></linearGradient><linearGradient id="Degradado_sin_nombre_21-2" x1="-28.75" y1="19.96" x2="269.23" y2="110.26" xlink:href="#Degradado_sin_nombre_21"/><linearGradient id="Degradado_sin_nombre_21-3" x1="-89.7" y1="19.25" x2="208.28" y2="109.54" xlink:href="#Degradado_sin_nombre_21"/><linearGradient id="Degradado_sin_nombre_21-4" x1="-70.1" y1="-20.19" x2="227.88" y2="70.11" xlink:href="#Degradado_sin_nombre_21"/></defs><g id="Capa_2" data-name="Capa 2"><g id="Capa_2-2" data-name="Capa 2"><path class="cls-1" d="M273.33,3.08l19.24,92.67,87,84.12,55.61,24.95c1.13,38.84-12.5,38.43-100.51,28.88L242.32,192s-20.94-20-56.23-20.67L97.7,136s-.81-29.58,2.76-32.79l197.82,77.34-.72-13.9-279.8-108V46.92l159.69,62V96.47L79.78,59.4V48L207,96.82V85.42L38.08,20.19V7.36L150.36,50.49,178.51,9.85s4.64,5.7,4.28,37.43l44.06-16S268.34-6.19,273.33,3.08Z"/><polygon class="cls-2" points="60.95 52.98 72.83 57.73 72.83 45.61 60.95 40.15 60.95 52.98"/><polygon class="cls-3" points="0 52.27 11.88 57.02 11.88 44.9 0 39.44 0 52.27"/><polygon class="cls-4" points="19.6 12.83 31.48 17.58 31.48 5.46 19.6 0 19.6 12.83"/></g></g></svg>